# xmcd CD database file
#
# Track frame offsets:
#	225
#	27043
#	48940
#	69693
#	92469
#	115873
#	136225
#	153350
#	173354
#	193269
#	218373
#	249267
#
# Disc length: 3651 seconds
#
# Revision: 10
# Processed by: cddbd v1.5.1PL2 Copyright (c) Steve Scherf et al.
# Submitted via: CDex 1.51
#
DISCID=900e400c
DTITLE=Various Artist - World Of New Age CD 3
DYEAR=1999
DGENRE=New Age
TTITLE0=Vite
TTITLE1=Flow Of Energy
TTITLE2=Enter The Kingdom
TTITLE3=Mystery
TTITLE4=Communication From The Heart
TTITLE5=Enlightment
TTITLE6=Harmonious Journey
TTITLE7=Natural Power
TTITLE8=Perfect Harmony
TTITLE9=Perfect Love
TTITLE10=Touch Of Love
TTITLE11=First Day Of Winter
EXTD=YEAR: 1999
EXTT0=
EXTT1=
EXTT2=
EXTT3=
EXTT4=
EXTT5=
EXTT6=
EXTT7=
EXTT8=
EXTT9=
EXTT10=
EXTT11=
PLAYORDER=
